<svg width="16" height="16" viewBox="0 0 16 16" fill="none" xmlns="http://www.w3.org/2000/svg">
<g clip-path="url(#clip0_92_243)">
<path d="M7.99986 6.7408L13.4591 1.28152C13.7875 0.915654 14.3502 0.885242 14.716 1.21347C15.0819 1.54188 15.1123 2.10449 14.7841 2.47036C14.7618 2.49502 14.7383 2.51857 14.7136 2.54064L9.25916 7.99992L14.7184 13.4592C15.0843 13.7876 15.1147 14.3502 14.7865 14.7161C14.4581 15.082 13.8955 15.1124 13.5296 14.7841C13.5049 14.7619 13.4814 14.7383 13.4593 14.7137L8.00004 9.25922L2.54077 14.7185C2.21236 15.0844 1.64974 15.1148 1.28387 14.7866C0.918004 14.4581 0.887592 13.8955 1.21582 13.5297C1.23807 13.505 1.26162 13.4814 1.28628 13.4594L6.74074 8.0001L1.28146 2.54083C0.915593 2.21242 0.885181 1.6498 1.21341 1.28393C1.54181 0.918065 2.10443 0.887653 2.4703 1.21588C2.49496 1.23813 2.51851 1.26149 2.54058 1.28634L7.99986 6.7408Z" fill="#7C7D7E"/>
</g>
<defs>
<clipPath id="clip0_92_243">
<rect width="16" height="16" fill="white"/>
</clipPath>
</defs>
</svg>
