<?xml version="1.0" standalone="no"?><!DOCTYPE svg PUBLIC "-//W3C//DTD SVG 1.1//EN" "http://www.w3.org/Graphics/SVG/1.1/DTD/svg11.dtd"><svg class="icon" width="200px" height="200.00px" viewBox="0 0 1024 1024" version="1.1" xmlns="http://www.w3.org/2000/svg"><path d="M946.432 147.626667H870.4L870.4 71.68c0-39.424-45.568-71.594667-88.32-71.594667L77.653333 0C34.986667 0 0.085333 32.170667 0.085333 71.68L0 814.762667c0 39.509333 34.816 71.68 77.568 71.68h98.048v65.877333c0 39.509333 34.816 71.68 77.568 71.68h693.248c42.752 0 77.568-32.170667 77.568-71.68V219.306667c0-39.509333-34.816-71.68-77.568-71.68z m-857.6 665.6c-5.034667 0-9.045333-3.84-9.045333-8.448V81.92C79.786667 77.226667 83.797333 73.386667 88.746667 73.386667h693.248c5.034667 0 9.130667 3.84 9.130666 8.448v65.792H253.184c-42.752 0-77.653333 32.170667-77.653333 71.68v593.92H88.917333z m855.722667 129.024c0 4.608-4.096 8.362667-9.045334 8.362666H264.021333c-5.034667-0.085333-9.045333-3.84-9.045333-8.533333l-0.170667-712.704c0-4.608 4.096-8.362667 9.130667-8.362667l671.402667 0.085334c5.12 0 9.130667 3.754667 9.130666 8.362666l0.085334 712.789334zM408.405333 453.632h384c21.845333 0 39.68-16.469333 39.68-36.693333 0-20.309333-17.834667-36.693333-39.765333-36.693334H408.405333c-21.930667 0-39.68 16.384-39.68 36.693334 0 20.224 17.749333 36.693333 39.68 36.693333z m384 91.648h-384c-21.930667 0-39.68 16.469333-39.68 36.693333 0 20.309333 17.749333 36.693333 39.68 36.693334h384c21.845333 0 39.68-16.384 39.68-36.693334 0-20.224-17.834667-36.693333-39.765333-36.693333zM666.453333 716.544H408.405333c-21.930667 0-39.68 16.384-39.68 36.693333 0 20.224 17.749333 36.693333 39.68 36.693334h258.133334c22.016 0 39.765333-16.469333 39.765333-36.693334 0-20.309333-17.749333-36.693333-39.765333-36.693333z" fill="#3480F0" /></svg>