<svg width="15" height="14" viewBox="0 0 15 14" fill="none" xmlns="http://www.w3.org/2000/svg">
<path d="M7.30948 6.39958C7.40742 6.52105 7.47043 6.66689 7.49175 6.82145C7.51307 6.97601 7.4919 7.13346 7.4305 7.2769C7.41404 7.33244 7.38691 7.38423 7.35062 7.42938L2.63073 12.7369C2.57909 12.8289 2.50465 12.906 2.41457 12.9609C2.32449 13.0158 2.2218 13.0466 2.11638 13.0503C2.02686 13.0477 1.93899 13.0255 1.85893 12.9854C1.77886 12.9452 1.70853 12.8881 1.65286 12.818C1.52829 12.6675 1.46013 12.4784 1.46013 12.2831C1.46013 12.0878 1.52829 11.8986 1.65286 11.7482L5.9286 6.99495L1.65286 2.24168C1.52537 2.09367 1.45355 1.90582 1.44979 1.71052C1.44604 1.51522 1.51058 1.32474 1.63229 1.17195C1.68603 1.10283 1.75485 1.0469 1.83351 1.00843C1.91216 0.969951 1.99856 0.949951 2.08612 0.949951C2.17368 0.949951 2.26009 0.969951 2.33874 1.00843C2.41739 1.0469 2.48622 1.10283 2.53996 1.17195L7.30948 6.39958Z" fill="#7C7D7E"/>
<path d="M7.71306 11.7494L11.9598 6.99558L7.69249 2.2418C7.56796 2.09137 7.49981 1.90219 7.49981 1.70688C7.49981 1.51157 7.56796 1.32238 7.69249 1.17195C7.7461 1.10284 7.81479 1.04691 7.89333 1.00843C7.97186 0.969955 8.05815 0.949951 8.1456 0.949951C8.23305 0.949951 8.31934 0.969955 8.39788 1.00843C8.47641 1.04691 8.54511 1.10284 8.59871 1.17195L13.3597 6.43041C13.4576 6.55188 13.5206 6.69774 13.5419 6.85232C13.5632 7.0069 13.5421 7.16437 13.4807 7.30782C13.4638 7.36304 13.4362 7.41443 13.3996 7.4591L8.68945 12.7684C8.63664 12.8504 8.56507 12.9187 8.48066 12.9676C8.39625 13.0164 8.30141 13.0445 8.204 13.0495C8.10659 13.0545 8.0094 13.0362 7.92045 12.9961C7.83151 12.9561 7.75337 12.8954 7.69249 12.8192C7.57082 12.6664 7.50629 12.4759 7.51005 12.2806C7.5138 12.0853 7.5856 11.8974 7.71306 11.7494Z" fill="#7C7D7E"/>
</svg>
