<svg width="32" height="24" viewBox="0 0 32 24" fill="none" xmlns="http://www.w3.org/2000/svg">
<path d="M28.4347 0.44458H3.55942C2.61802 0.44599 1.71556 0.820463 1.04972 1.48597C0.383886 2.15147 0.00896182 3.05375 0.00708008 3.99514V19.9869C0.00754921 20.9289 0.381606 21.8323 1.04721 22.4989C1.71282 23.1655 2.61563 23.5409 3.55764 23.5428H28.4329C29.3753 23.5419 30.2787 23.1671 30.945 22.5008C31.6114 21.8345 31.9861 20.931 31.9871 19.9887V3.99692C31.9856 3.05522 31.6109 2.15248 30.945 1.4866C30.2792 0.820708 29.3764 0.445992 28.4347 0.44458ZM30.2118 19.9887C30.2113 20.4598 30.0239 20.9116 29.6908 21.2447C29.3576 21.5779 28.9059 21.7653 28.4347 21.7657H3.55942C3.08857 21.7648 2.6373 21.5772 2.30452 21.2441C1.97174 20.911 1.78461 20.4595 1.78414 19.9887V3.99692C1.78461 3.52638 1.9715 3.07518 2.30389 2.74212C2.63628 2.40906 3.0871 2.22127 3.55764 2.21986H28.4329C28.9044 2.22033 29.3564 2.40795 29.6896 2.7415C30.0228 3.07505 30.21 3.52723 30.21 3.9987V19.9887H30.2118Z" fill="#1677FF"/>
</svg>
