<svg class="icon" style="width: 1em;height: 1em;vertical-align: middle;fill: currentColor;overflow: hidden;" viewBox="0 0 1024 1024" version="1.1" xmlns="http://www.w3.org/2000/svg" p-id="4298"><path d="M665.6 776.928l153.6-88.68224-153.6-88.6784z" fill="#4034AB" p-id="4299"></path><path d="M512 688.24576l153.6 88.68096V599.5648z" fill="#4B41BA" p-id="4300"></path><path d="M512 865.60768l153.6-88.68096-153.6-88.68224z" fill="#534AC4" p-id="4301"></path><path d="M358.4 776.928L512 865.60768V688.24576z" fill="#5952CD" p-id="4302"></path><path d="M512 688.24576L358.4 599.5648v177.36192z" fill="#645EDB" p-id="4303"></path><path d="M204.8 688.24576l153.6 88.68224V599.5648z" fill="#6B67E4" p-id="4304"></path><path d="M204.8 688.24576l153.6-88.68096-153.6-88.67968z" fill="#7572F1" p-id="4305"></path><path d="M204.8 510.88384l153.6 88.68224V422.2016z" fill="#787BF8" p-id="4306"></path><path d="M204.8 510.88384l153.6-88.68224-153.6-88.6784z" fill="#6F8AF8" p-id="4307"></path><path d="M204.8 333.52192l153.6 88.68096V244.8384z" fill="#6997F9" p-id="4308"></path><path d="M512 333.52192l-153.6-88.68096v177.36192z" fill="#61A4F9" p-id="4309"></path><path d="M512 156.16L358.4 244.84096 512 333.5232z" fill="#59B4F9" p-id="4310"></path><path d="M512 156.16v177.3632l153.6-88.68224z" fill="#51C3FA" p-id="4311"></path><path d="M512 333.52192l153.6 88.68096V244.84096z" fill="#49D1FA" p-id="4312"></path><path d="M665.6 422.2016l153.6-88.67968-153.6-88.68096z" fill="#43DDFB" p-id="4313"></path></svg>