<svg width="57" height="61" viewBox="0 0 57 61" fill="none" xmlns="http://www.w3.org/2000/svg">
                                <path fill-rule="evenodd" clip-rule="evenodd" d="M57 37.7305V45.4871C57 50.4847 53.3544 54.5363 48.8573 54.5363H43.0408C40.2376 58.5286 35.964 60.9032 31.4083 60.9999H15.1224C7.20456 61.0262 0.609155 54.2602 0 45.4871V22.8858C0 21.8027 0.790104 20.9249 1.76442 20.9249H44.7662C45.7406 20.9249 46.5307 21.8027 46.5307 22.8858V28.6813H48.8573C53.3544 28.6813 57 32.7329 57 37.7305ZM52.3469 45.4871V37.7305C52.3469 35.5887 50.7845 33.8523 48.8573 33.8523H46.5307V45.4871C46.3929 47.2684 46.0002 49.0141 45.3675 50.6581H47.6939C49.9439 50.6581 51.5055 50.3211 52.1513 48.3032C52.3075 47.815 52.3469 45.4871 52.3469 45.4871ZM13.8056 2.04635C14.1411 1.82339 14.8744 0.770816 14.2739 0.621923C11.0052 -0.187573 4.16509 3.16421 4.16509 7.59979C4.16509 11.0406 11.0383 12.9458 11.0383 15.0145C11.0383 15.672 9.99981 16.0581 9.36941 16.6459C9.07662 16.9189 9.03739 17.8742 10.3248 17.4853C12.8142 16.7334 16.2943 14.8742 16.2943 13.0105C16.2943 11.2292 10.2296 8.86835 10.2296 6.79829C10.2296 4.4898 12.0778 3.19414 13.8056 2.04635ZM40.1979 4.31175C40.5176 4.07899 40.1599 3.46741 39.2551 3.70972C36.8257 4.36 33.8913 5.52147 33.8913 8.13421C33.8913 10.3578 38.3326 11.5887 38.3326 12.9256C38.3326 13.2206 37.8664 13.3981 37.6207 13.6889C37.3852 13.9679 36.9149 14.7493 38.3212 14.613C40.154 14.4355 41.7291 12.6916 41.7291 11.6308C41.7291 10.4796 37.8101 8.95377 37.8101 7.61631C37.8101 6.31729 39.1218 5.09544 40.1979 4.31175ZM28.8178 0.776493C29.189 0.5747 28.9021 -0.103449 27.8145 0.0134462C23.8869 0.43587 16.6421 2.59212 16.6421 6.81275C16.6421 10.0801 24.6961 11.8891 24.6961 13.8538C24.6961 14.4688 24.0445 15.1366 23.319 15.6898C22.9905 15.9404 22.3634 17.0098 23.8453 16.6459C26.7232 15.9394 30.8549 13.7442 30.8549 11.9507C30.8549 10.2592 23.7486 8.01705 23.7486 6.0515C23.7486 3.89242 26.7916 1.8781 28.8178 0.776493Z" fill="#66D3FF"></path>
                                <defs>
                                    <linearGradient id="paint0_linear" x1="0" y1="0" x2="67.563" y2="15.7831" gradientUnits="userSpaceOnUse">
                                        <stop stop-color="#00B5FF"></stop>
                                        <stop offset="0.888197" stop-color="#66D3FF"></stop>
                                    </linearGradient>
                                </defs>
                            </svg>