<?xml version="1.0" standalone="no"?><!DOCTYPE svg PUBLIC "-//W3C//DTD SVG 1.1//EN" "http://www.w3.org/Graphics/SVG/1.1/DTD/svg11.dtd"><svg t="1752738308293" class="icon" viewBox="0 0 1024 1024" version="1.1" xmlns="http://www.w3.org/2000/svg" p-id="6595" xmlns:xlink="http://www.w3.org/1999/xlink" width="200" height="200"><path d="M910.336 0H113.664C37.888 0 0 37.888 0 113.664v796.672C0 986.112 37.888 1024 113.664 1024h796.672c75.776 0 113.664-37.888 113.664-113.664V113.664C1024 37.888 986.112 0 910.336 0z m-338.944 739.328h-66.56V388.096h-1.024l-138.752 214.528-140.8-214.528h-1.536v351.232h-66.56V284.672h98.816L365.568 465.92h1.024l107.52-181.76h97.28v455.168z m291.328-218.624l-125.952 215.04c-1.024 1.536-2.56 2.048-4.096 1.024-0.512 0-1.024-0.512-1.024-1.024l-125.952-215.04c-1.536-2.56-0.512-6.144 2.048-7.68 1.024-0.512 2.048-1.024 3.072-1.024h78.848V284.672h89.088V512h78.848c3.072 0 5.632 2.56 5.632 5.632 0 1.024 0 2.048-0.512 3.072z" p-id="6596" fill="#1296db"></path></svg>