<?xml version="1.0" standalone="no"?><!DOCTYPE svg PUBLIC "-//W3C//DTD SVG 1.1//EN" "http://www.w3.org/Graphics/SVG/1.1/DTD/svg11.dtd"><svg t="1752738510354" class="icon" viewBox="0 0 1024 1024" version="1.1" xmlns="http://www.w3.org/2000/svg" p-id="8656" width="200" height="200" xmlns:xlink="http://www.w3.org/1999/xlink"><path d="M341.333333 576a42.666667 42.666667 0 0 1-42.666666-42.666667v-149.333333a42.666667 42.666667 0 0 1 85.333333 0v149.333333a42.666667 42.666667 0 0 1-42.666667 42.666667zM512 576a42.666667 42.666667 0 0 1-42.666667-42.666667v-85.333333a42.666667 42.666667 0 0 1 85.333334 0v85.333333a42.666667 42.666667 0 0 1-42.666667 42.666667zM682.666667 576a42.666667 42.666667 0 0 1-42.666667-42.666667V320a42.666667 42.666667 0 0 1 85.333333 0v213.333333a42.666667 42.666667 0 0 1-42.666666 42.666667z" p-id="8657" fill="#707070"></path><path d="M857.813333 128H170.666667a42.666667 42.666667 0 0 0-42.666667 42.666667v516.693333A38.186667 38.186667 0 0 0 166.186667 725.333333h113.92l-61.226667 106.666667a42.666667 42.666667 0 0 0 15.786667 58.453333 42.666667 42.666667 0 0 0 21.333333 5.546667 42.666667 42.666667 0 0 0 37.12-21.333333l85.333333-149.333334H469.333333v128a42.666667 42.666667 0 0 0 85.333334 0v-128h91.093333l85.333333 149.333334A42.666667 42.666667 0 0 0 768 896a42.666667 42.666667 0 0 0 21.333333-5.546667 42.666667 42.666667 0 0 0 15.786667-58.453333l-61.226667-106.666667h113.92A38.186667 38.186667 0 0 0 896 687.36V166.186667A38.186667 38.186667 0 0 0 857.813333 128zM810.666667 640H213.333333V213.333333h597.333334z" p-id="8658" fill="#707070"></path></svg>