<svg width="57" height="61" viewBox="0 0 50 55" fill="none" xmlns="http://www.w3.org/2000/svg">
                                <path fill-rule="evenodd" clip-rule="evenodd" d="M47.0489 9.54018H13.1968C12.0427 9.54018 11.1363 10.539 11.2363 11.7005L11.7527 17.6984C11.8411 18.7256 12.6923 19.5142 13.7129 19.5142H45.8377C46.9923 19.5142 47.899 20.5139 47.798 21.6758L45.5078 48.0531C45.4358 48.8836 44.8584 49.5806 44.062 49.7985L25.3053 54.9309C24.9648 55.0239 24.6061 55.023 24.2663 54.9281L5.9285 49.8036C5.13693 49.5824 4.56465 48.8878 4.49295 48.0611L3.48207 36.42C3.38135 35.2578 4.2878 34.2581 5.44233 34.2581H11.4352C12.4379 34.2581 13.2803 35.0198 13.391 36.0266L13.9083 40.7306C13.997 41.5361 14.5609 42.2067 15.3334 42.4254L24.2649 44.9521C24.6056 45.0483 24.9655 45.0502 25.3071 44.9572L34.6339 42.4205C35.4231 42.2058 35.9989 41.5203 36.0801 40.6986L37.0162 31.2403C37.1323 30.0699 36.2226 29.0543 35.0583 29.0543H4.64541C3.62525 29.0543 2.77427 28.2667 2.68515 27.24L0.507683 2.16192C0.406735 0.999727 1.31341 0 2.46794 0H47.5321C48.6866 0 49.5933 0.999727 49.4923 2.16192L49.0092 7.7258C48.92 8.75257 48.0691 9.54018 47.0489 9.54018Z" fill="#38EF7D"></path>
                                <defs>
                                    <linearGradient id="paint2_linear" x1="0.5" y1="0" x2="58.8551" y2="12.9973" gradientUnits="userSpaceOnUse">
                                        <stop stop-color="#38EF7D"></stop>
                                        <stop offset="1" stop-color="#11998E"></stop>
                                    </linearGradient>
                                </defs>
</svg>