<svg width="54" height="60" viewBox="0 0 54 60" fill="none" xmlns="http://www.w3.org/2000/svg">
                                <path fill-rule="evenodd" clip-rule="evenodd" d="M54 23.7191C54 40.8923 42.6059 55.3893 27 60C11.3941 55.3893 0 40.8923 0 23.7191C0 22.3222 0.0758434 20.943 0.222848 19.5854C0.483384 14.366 1.4546 9.51604 2.95953 5.34911C3.03818 5.13156 3.23832 4.99146 3.46749 4.96768C5.92842 4.71364 8.03167 2.91483 9.13304 0.363058C9.22691 0.145506 9.4343 0 9.67026 0H44.3307C44.5664 0 44.7736 0.145506 44.8674 0.362823C45.9896 2.9638 48.1521 4.78286 50.6737 4.98158C50.9096 5.00018 51.1182 5.14215 51.1987 5.36582C52.9703 10.2777 54 16.1375 54 22.431C54 22.6855 53.9977 22.9379 53.9942 23.1889C53.9965 23.3655 54 23.5421 54 23.7191ZM48.8452 23.8759C48.8452 18.8136 48.0217 14.0978 46.6036 10.1379C46.5236 9.91441 46.3157 9.77385 46.0807 9.75172C44.0936 9.56384 42.3904 8.13161 41.4854 6.08794C41.3899 5.87227 41.1843 5.72747 40.9493 5.72747H13.0514C12.8164 5.72747 12.6106 5.87227 12.5149 6.08794C11.6272 8.09229 9.97106 9.50803 8.03284 9.73877C7.80367 9.76608 7.60283 9.9057 7.52464 10.1237C6.32098 13.48 5.54452 17.3795 5.33502 21.5737C5.2161 22.6721 5.15454 23.7879 5.15454 24.9182C5.15454 38.8129 14.3735 50.5419 27 54.2725C39.6263 50.5419 48.8452 38.8129 48.8452 24.9182C48.8452 24.7749 48.8424 24.6322 48.8405 24.4893C48.8434 24.2861 48.8452 24.0822 48.8452 23.8759ZM27 49.5989C17.2429 46.5551 10.1192 36.9851 10.1192 25.6484C10.1192 24.7264 10.1668 23.8156 10.2585 22.9195C10.4191 19.523 11.0116 17.0572 11.9296 14.3905C12.0022 14.1798 12.1944 14.0408 12.414 14.0086C13.9692 13.7807 15.2806 12.5088 15.9217 10.7455H37.6831C37.9219 10.7455 38.13 10.8946 38.2255 11.1147C38.9215 12.7165 40.1916 13.8421 41.6736 14.0211C41.8976 14.0481 42.0952 14.1861 42.1687 14.4006C43.252 17.5688 43.8808 20.6929 43.8808 24.7982C43.8808 24.966 43.8794 25.1327 43.877 25.2985C43.8787 25.415 43.8808 25.5316 43.8808 25.6484C43.8808 36.9851 36.7569 46.5551 27 49.5989Z" fill="#F76464"></path>
                                <defs>
                                    <linearGradient id="paint4_linear" x1="-8.65575e-07" y1="2.2" x2="66.3966" y2="34.5808" gradientUnits="userSpaceOnUse">
                                        <stop stop-color="#F76464"></stop>
                                        <stop offset="0.887383" stop-color="#FA7D7D"></stop>
                                    </linearGradient>
                                </defs>
                            </svg>